<svg width="177" height="39" viewBox="0 0 177 39" fill="none" xmlns="http://www.w3.org/2000/svg">
<g clip-path="url(#clip0_4_20)">
<rect width="177" height="39" fill="#182852"/>
<g filter="url(#filter0_d_4_20)">
<path d="M4.768 37.288C3.95733 37.288 3.33867 37.064 2.912 36.616C2.48533 36.168 2.272 35.5387 2.272 34.728V16.968C2.272 16.136 2.48533 15.5067 2.912 15.08C3.36 14.6533 3.98933 14.44 4.8 14.44H12.576C15.0933 14.44 17.0347 15.048 18.4 16.264C19.7653 17.48 20.448 19.176 20.448 21.352C20.448 22.76 20.1387 23.976 19.52 25C18.9013 26.024 18.0053 26.8133 16.832 27.368C15.68 27.9227 14.2613 28.2 12.576 28.2L12.832 27.656H14.144C15.04 27.656 15.8187 27.88 16.48 28.328C17.1627 28.7547 17.7493 29.416 18.24 30.312L20.224 33.992C20.5227 34.5253 20.6613 35.048 20.64 35.56C20.6187 36.072 20.4267 36.488 20.064 36.808C19.7013 37.128 19.168 37.288 18.464 37.288C17.76 37.288 17.184 37.1387 16.736 36.84C16.3093 36.5413 15.9253 36.0827 15.584 35.464L12.512 29.8C12.192 29.2027 11.7973 28.7973 11.328 28.584C10.88 28.3707 10.3253 28.264 9.664 28.264H7.232V34.728C7.232 35.5387 7.01867 36.168 6.592 36.616C6.18667 37.064 5.57867 37.288 4.768 37.288ZM7.232 24.68H11.68C13.0027 24.68 13.9947 24.4133 14.656 23.88C15.3387 23.3467 15.68 22.5467 15.68 21.48C15.68 20.4347 15.3387 19.6453 14.656 19.112C13.9947 18.5787 13.0027 18.312 11.68 18.312H7.232V24.68ZM27.1453 37C26.3133 37 25.6733 36.776 25.2253 36.328C24.7773 35.88 24.5533 35.24 24.5533 34.408V17.032C24.5533 16.2 24.7773 15.56 25.2253 15.112C25.6733 14.664 26.3133 14.44 27.1453 14.44H38.3133C38.9533 14.44 39.4333 14.6107 39.7533 14.952C40.0946 15.272 40.2653 15.7413 40.2653 16.36C40.2653 17 40.0946 17.4907 39.7533 17.832C39.4333 18.152 38.9533 18.312 38.3133 18.312H29.2893V23.592H37.5773C38.2386 23.592 38.7293 23.7627 39.0493 24.104C39.3906 24.424 39.5613 24.904 39.5613 25.544C39.5613 26.184 39.3906 26.6747 39.0493 27.016C38.7293 27.336 38.2386 27.496 37.5773 27.496H29.2893V33.128H38.3133C38.9533 33.128 39.4333 33.2987 39.7533 33.64C40.0946 33.96 40.2653 34.4293 40.2653 35.048C40.2653 35.688 40.0946 36.1787 39.7533 36.52C39.4333 36.84 38.9533 37 38.3133 37H27.1453ZM54.8723 37.352C52.4403 37.352 50.3603 36.872 48.6323 35.912C46.9043 34.952 45.5709 33.608 44.6323 31.88C43.7149 30.1307 43.2563 28.072 43.2563 25.704C43.2563 23.9333 43.5123 22.344 44.0243 20.936C44.5576 19.5067 45.3256 18.2907 46.3283 17.288C47.3309 16.264 48.5469 15.4747 49.9763 14.92C51.4269 14.3653 53.0589 14.088 54.8723 14.088C55.9389 14.088 57.0163 14.2267 58.1042 14.504C59.2136 14.76 60.1736 15.1333 60.9843 15.624C61.5176 15.9227 61.8803 16.296 62.0723 16.744C62.2643 17.192 62.3176 17.64 62.2323 18.088C62.1683 18.536 61.9869 18.92 61.6883 19.24C61.4109 19.56 61.0589 19.7627 60.6323 19.848C60.2056 19.9333 59.7256 19.8373 59.1923 19.56C58.5523 19.176 57.8803 18.8987 57.1763 18.728C56.4723 18.5573 55.7576 18.472 55.0323 18.472C53.6029 18.472 52.3976 18.76 51.4163 19.336C50.4563 19.8907 49.7309 20.7013 49.2403 21.768C48.7496 22.8347 48.5043 24.1467 48.5043 25.704C48.5043 27.24 48.7496 28.552 49.2403 29.64C49.7309 30.728 50.4563 31.56 51.4163 32.136C52.3976 32.6907 53.6029 32.968 55.0323 32.968C55.7149 32.968 56.4083 32.8827 57.1123 32.712C57.8376 32.5413 58.5309 32.2747 59.1923 31.912C59.7469 31.6347 60.2376 31.5387 60.6643 31.624C61.1123 31.688 61.4749 31.88 61.7523 32.2C62.0509 32.4987 62.2323 32.8613 62.2963 33.288C62.3816 33.7147 62.3389 34.1413 62.1683 34.568C61.9976 34.9947 61.6776 35.3573 61.2083 35.656C60.4189 36.1893 59.4483 36.6053 58.2963 36.904C57.1443 37.2027 56.0029 37.352 54.8723 37.352ZM75.5173 37.352C73.2986 37.352 71.3466 36.872 69.6613 35.912C67.9973 34.9307 66.6959 33.5653 65.7573 31.816C64.8399 30.0667 64.3813 28.0293 64.3813 25.704C64.3813 23.9333 64.6373 22.344 65.1493 20.936C65.6826 19.5067 66.4399 18.2907 67.4213 17.288C68.4026 16.264 69.5759 15.4747 70.9413 14.92C72.3279 14.3653 73.8533 14.088 75.5173 14.088C77.7786 14.088 79.7413 14.568 81.4053 15.528C83.0693 16.488 84.3599 17.8427 85.2773 19.592C86.2159 21.32 86.6853 23.3467 86.6853 25.672C86.6853 27.4427 86.4186 29.0427 85.8853 30.472C85.3519 31.9013 84.5946 33.128 83.6133 34.152C82.6319 35.176 81.4586 35.9653 80.0933 36.52C78.7279 37.0747 77.2026 37.352 75.5173 37.352ZM75.5173 33.128C76.7759 33.128 77.8426 32.84 78.7173 32.264C79.6133 31.6667 80.2959 30.8133 80.7653 29.704C81.2559 28.5733 81.5013 27.24 81.5013 25.704C81.5013 23.3573 80.9786 21.544 79.9333 20.264C78.8879 18.9627 77.4159 18.312 75.5173 18.312C74.2799 18.312 73.2133 18.6 72.3173 19.176C71.4213 19.752 70.7386 20.5947 70.2693 21.704C69.7999 22.8133 69.5653 24.1467 69.5653 25.704C69.5653 28.0293 70.0879 29.8533 71.1333 31.176C72.1786 32.4773 73.6399 33.128 75.5173 33.128ZM99.3043 37.288C98.6216 37.288 98.0563 37.1387 97.6083 36.84C97.1816 36.52 96.8296 36.04 96.5523 35.4L88.4883 17.48C88.1896 16.84 88.1043 16.2747 88.2323 15.784C88.3603 15.272 88.6269 14.8773 89.0323 14.6C89.4376 14.3013 89.9283 14.152 90.5043 14.152C91.2296 14.152 91.7843 14.3227 92.1683 14.664C92.5523 14.984 92.8723 15.464 93.1283 16.104L100.2 32.456H98.6003L105.672 16.072C105.95 15.432 106.28 14.952 106.664 14.632C107.048 14.312 107.582 14.152 108.264 14.152C108.84 14.152 109.31 14.3013 109.672 14.6C110.056 14.8773 110.291 15.272 110.376 15.784C110.483 16.2747 110.398 16.84 110.12 17.48L102.056 35.4C101.758 36.04 101.395 36.52 100.968 36.84C100.563 37.1387 100.008 37.288 99.3043 37.288ZM115.77 37C114.938 37 114.298 36.776 113.85 36.328C113.402 35.88 113.178 35.24 113.178 34.408V17.032C113.178 16.2 113.402 15.56 113.85 15.112C114.298 14.664 114.938 14.44 115.77 14.44H126.938C127.578 14.44 128.058 14.6107 128.378 14.952C128.72 15.272 128.89 15.7413 128.89 16.36C128.89 17 128.72 17.4907 128.378 17.832C128.058 18.152 127.578 18.312 126.938 18.312H117.914V23.592H126.202C126.864 23.592 127.354 23.7627 127.674 24.104C128.016 24.424 128.186 24.904 128.186 25.544C128.186 26.184 128.016 26.6747 127.674 27.016C127.354 27.336 126.864 27.496 126.202 27.496H117.914V33.128H126.938C127.578 33.128 128.058 33.2987 128.378 33.64C128.72 33.96 128.89 34.4293 128.89 35.048C128.89 35.688 128.72 36.1787 128.378 36.52C128.058 36.84 127.578 37 126.938 37H115.77ZM135.049 37.288C134.239 37.288 133.62 37.064 133.193 36.616C132.767 36.168 132.553 35.5387 132.553 34.728V16.968C132.553 16.136 132.767 15.5067 133.193 15.08C133.641 14.6533 134.271 14.44 135.081 14.44H142.857C145.375 14.44 147.316 15.048 148.681 16.264C150.047 17.48 150.729 19.176 150.729 21.352C150.729 22.76 150.42 23.976 149.801 25C149.183 26.024 148.287 26.8133 147.113 27.368C145.961 27.9227 144.543 28.2 142.857 28.2L143.113 27.656H144.425C145.321 27.656 146.1 27.88 146.761 28.328C147.444 28.7547 148.031 29.416 148.521 30.312L150.505 33.992C150.804 34.5253 150.943 35.048 150.921 35.56C150.9 36.072 150.708 36.488 150.345 36.808C149.983 37.128 149.449 37.288 148.745 37.288C148.041 37.288 147.465 37.1387 147.017 36.84C146.591 36.5413 146.207 36.0827 145.865 35.464L142.793 29.8C142.473 29.2027 142.079 28.7973 141.609 28.584C141.161 28.3707 140.607 28.264 139.945 28.264H137.513V34.728C137.513 35.5387 137.3 36.168 136.873 36.616C136.468 37.064 135.86 37.288 135.049 37.288ZM137.513 24.68H141.961C143.284 24.68 144.276 24.4133 144.937 23.88C145.62 23.3467 145.961 22.5467 145.961 21.48C145.961 20.4347 145.62 19.6453 144.937 19.112C144.276 18.5787 143.284 18.312 141.961 18.312H137.513V24.68ZM155.037 37.288C154.44 37.288 153.949 37.1493 153.565 36.872C153.202 36.5947 152.968 36.2213 152.861 35.752C152.776 35.2827 152.872 34.76 153.149 34.184L161.341 16.232C161.682 15.5067 162.088 14.984 162.557 14.664C163.026 14.3227 163.57 14.152 164.189 14.152C164.808 14.152 165.352 14.3227 165.821 14.664C166.29 14.984 166.685 15.5067 167.005 16.232L175.261 34.184C175.538 34.76 175.634 35.2933 175.549 35.784C175.485 36.2533 175.272 36.6267 174.909 36.904C174.546 37.16 174.077 37.288 173.501 37.288C172.776 37.288 172.21 37.1173 171.805 36.776C171.421 36.4347 171.08 35.9013 170.781 35.176L168.861 30.728L170.845 32.104H157.501L159.485 30.728L157.597 35.176C157.277 35.9227 156.936 36.4667 156.573 36.808C156.232 37.128 155.72 37.288 155.037 37.288ZM164.125 19.72L160.029 29.48L159.165 28.232H169.181L168.317 29.48L164.189 19.72H164.125Z" fill="url(#paint0_linear_4_20)"/>
</g>
<g filter="url(#filter1_d_4_20)">
<path d="M3.804 9.108C3.5 9.108 3.268 9.024 3.108 8.856C2.948 8.688 2.868 8.452 2.868 8.148V2.076H0.744C0.496 2.076 0.304 2.008 0.168 1.872C0.032 1.736 -0.036 1.548 -0.036 1.308C-0.036 1.06 0.032 0.872 0.168 0.744C0.304 0.608 0.496 0.539999 0.744 0.539999H6.852C7.1 0.539999 7.292 0.608 7.428 0.744C7.564 0.872 7.632 1.06 7.632 1.308C7.632 1.548 7.564 1.736 7.428 1.872C7.292 2.008 7.1 2.076 6.852 2.076H4.728V8.148C4.728 8.452 4.648 8.688 4.488 8.856C4.336 9.024 4.108 9.108 3.804 9.108ZM21.85 9.108C21.546 9.108 21.314 9.024 21.154 8.856C20.994 8.688 20.914 8.452 20.914 8.148V1.392C20.914 1.088 20.994 0.852 21.154 0.684C21.314 0.516 21.546 0.431999 21.85 0.431999C22.146 0.431999 22.374 0.516 22.534 0.684C22.694 0.852 22.774 1.088 22.774 1.392V3.936H26.71V1.392C26.71 1.088 26.79 0.852 26.95 0.684C27.11 0.516 27.338 0.431999 27.634 0.431999C27.938 0.431999 28.17 0.516 28.33 0.684C28.49 0.852 28.57 1.088 28.57 1.392V8.148C28.57 8.452 28.49 8.688 28.33 8.856C28.17 9.024 27.938 9.108 27.634 9.108C27.338 9.108 27.11 9.024 26.95 8.856C26.79 8.688 26.71 8.452 26.71 8.148V5.484H22.774V8.148C22.774 8.452 22.694 8.688 22.534 8.856C22.382 9.024 22.154 9.108 21.85 9.108ZM43.7293 9C43.4173 9 43.1773 8.916 43.0093 8.748C42.8413 8.58 42.7573 8.34 42.7573 8.028V1.512C42.7573 1.2 42.8413 0.96 43.0093 0.792C43.1773 0.624 43.4173 0.539999 43.7293 0.539999H47.9173C48.1573 0.539999 48.3373 0.604 48.4573 0.732C48.5853 0.852 48.6493 1.028 48.6493 1.26C48.6493 1.5 48.5853 1.684 48.4573 1.812C48.3373 1.932 48.1573 1.992 47.9173 1.992H44.5333V3.972H47.6413C47.8893 3.972 48.0733 4.036 48.1933 4.164C48.3213 4.284 48.3853 4.464 48.3853 4.704C48.3853 4.944 48.3213 5.128 48.1933 5.256C48.0733 5.376 47.8893 5.436 47.6413 5.436H44.5333V7.548H47.9173C48.1573 7.548 48.3373 7.612 48.4573 7.74C48.5853 7.86 48.6493 8.036 48.6493 8.268C48.6493 8.508 48.5853 8.692 48.4573 8.82C48.3373 8.94 48.1573 9 47.9173 9H43.7293Z" fill="#7D67F3"/>
</g>
</g>
<defs>
<filter id="filter0_d_4_20" x="-1.728" y="14.088" width="181.405" height="31.264" filterUnits="userSpaceOnUse" color-interpolation-filters="sRGB">
<feFlood flood-opacity="0" result="BackgroundImageFix"/>
<feColorMatrix in="SourceAlpha" type="matrix" values="0 0 0 0 0 0 0 0 0 0 0 0 0 0 0 0 0 0 127 0" result="hardAlpha"/>
<feOffset dy="4"/>
<feGaussianBlur stdDeviation="2"/>
<feComposite in2="hardAlpha" operator="out"/>
<feColorMatrix type="matrix" values="0 0 0 0 0 0 0 0 0 0 0 0 0 0 0 0 0 0 0.25 0"/>
<feBlend mode="normal" in2="BackgroundImageFix" result="effect1_dropShadow_4_20"/>
<feBlend mode="normal" in="SourceGraphic" in2="effect1_dropShadow_4_20" result="shape"/>
</filter>
<filter id="filter1_d_4_20" x="-4.036" y="0.432007" width="56.6853" height="16.676" filterUnits="userSpaceOnUse" color-interpolation-filters="sRGB">
<feFlood flood-opacity="0" result="BackgroundImageFix"/>
<feColorMatrix in="SourceAlpha" type="matrix" values="0 0 0 0 0 0 0 0 0 0 0 0 0 0 0 0 0 0 127 0" result="hardAlpha"/>
<feOffset dy="4"/>
<feGaussianBlur stdDeviation="2"/>
<feComposite in2="hardAlpha" operator="out"/>
<feColorMatrix type="matrix" values="0 0 0 0 0 0 0 0 0 0 0 0 0 0 0 0 0 0 0.25 0"/>
<feBlend mode="normal" in2="BackgroundImageFix" result="effect1_dropShadow_4_20"/>
<feBlend mode="normal" in="SourceGraphic" in2="effect1_dropShadow_4_20" result="shape"/>
</filter>
<linearGradient id="paint0_linear_4_20" x1="0" y1="26" x2="177" y2="26" gradientUnits="userSpaceOnUse">
<stop stop-color="#825EF6"/>
<stop offset="1" stop-color="#42D3D8"/>
</linearGradient>
<clipPath id="clip0_4_20">
<rect width="177" height="39" fill="white"/>
</clipPath>
</defs>
</svg>
